<?xml version="1.0" encoding="utf-8"?>
<!-- Generator: Adobe Illustrator 17.1.0, SVG Export Plug-In . SVG Version: 6.00 Build 0)  -->
<!DOCTYPE svg PUBLIC "-//W3C//DTD SVG 1.1//EN" "http://www.w3.org/Graphics/SVG/1.1/DTD/svg11.dtd">
<svg version="1.1" id="Layer_1" xmlns="http://www.w3.org/2000/svg" xmlns:xlink="http://www.w3.org/1999/xlink" x="0px" y="0px"
	 viewBox="0 0 292.3 365.5" enable-background="new 0 0 292.3 365.5" xml:space="preserve">
<g>
	<g>
		<g>
			<path fill="#FFFFFF" d="M118.4,2.1"/>
		</g>
	</g>
	<polygon fill="#FFFFFF" points="290.8,1.1 254.6,1.1 145.8,47.9 37.7,1.6 1.6,1.6 1.6,13.6 113.8,61.7 1.6,110 1.6,122.1 
		37.7,122.1 146.2,75.6 254.6,122.1 290.8,122.1 290.8,110 178.3,61.8 290.8,13.6 	"/>
	<g>
		<g>
			<path fill="#FFFFFF" d="M26.3,53.8c0.4,0,1.2-4.4,1.2-4.4s2.4,1,2.8,0.7c0.3-0.2-4-14.5-4-14.5l0,0c0,0-4.2,14.2-4,14.5
				c0.2,0.3,2.8-0.7,2.8-0.7S25.9,53.8,26.3,53.8z"/>
		</g>
	</g>
	<g>
		<g>
			<circle fill="#FFFFFF" cx="26.3" cy="32.5" r="1.6"/>
		</g>
	</g>
	<g>
		<g>
			<circle fill="#FFFFFF" cx="23.1" cy="35.7" r="1.6"/>
		</g>
	</g>
	<g>
		<g>
			<circle fill="#FFFFFF" cx="29.5" cy="35.7" r="1.6"/>
		</g>
	</g>
	<g>
		<g>
			<path fill="#FFFFFF" d="M70.8,73.8c0.4,0,1.2-4.4,1.2-4.4s2.4,1,2.8,0.7c0.3-0.2-4-14.5-4-14.5l0,0c0,0-4.2,14.2-4,14.5
				c0.2,0.3,2.8-0.7,2.8-0.7S70.4,73.8,70.8,73.8z"/>
		</g>
	</g>
	<g>
		<g>
			<circle fill="#FFFFFF" cx="70.8" cy="52.5" r="1.6"/>
		</g>
	</g>
	<g>
		<g>
			<circle fill="#FFFFFF" cx="67.5" cy="55.7" r="1.6"/>
		</g>
	</g>
	<g>
		<g>
			<circle fill="#FFFFFF" cx="74" cy="55.7" r="1.6"/>
		</g>
	</g>
	<g>
		<g>
			<path fill="#FFFFFF" d="M26.3,91c0.4,0,1.2-4.4,1.2-4.4s2.4,1,2.8,0.7c0.3-0.2-4-14.5-4-14.5l0,0c0,0-4.2,14.2-4,14.5
				c0.2,0.3,2.8-0.7,2.8-0.7S25.9,91,26.3,91z"/>
		</g>
	</g>
	<g>
		<g>
			<circle fill="#FFFFFF" cx="26.3" cy="69.7" r="1.6"/>
		</g>
	</g>
	<g>
		<g>
			<circle fill="#FFFFFF" cx="23.1" cy="72.9" r="1.6"/>
		</g>
	</g>
	<g>
		<g>
			<circle fill="#FFFFFF" cx="29.5" cy="72.9" r="1.6"/>
		</g>
	</g>
	<g>
		<g>
			<path fill="#FFFFFF" d="M146.2,42.6c0.4,0,1.2-4.4,1.2-4.4s2.4,1,2.8,0.7c0.3-0.2-4-14.5-4-14.5l0,0c0,0-4.2,14.2-4,14.5
				c0.2,0.3,2.8-0.7,2.8-0.7S145.8,42.6,146.2,42.6z"/>
		</g>
	</g>
	<g>
		<g>
			<circle fill="#FFFFFF" cx="146.2" cy="21.3" r="1.6"/>
		</g>
	</g>
	<g>
		<g>
			<circle fill="#FFFFFF" cx="143" cy="24.5" r="1.6"/>
		</g>
	</g>
	<g>
		<g>
			<circle fill="#FFFFFF" cx="149.4" cy="24.5" r="1.6"/>
		</g>
	</g>
	<g>
		<g>
			<path fill="#FFFFFF" d="M112.8,29.4c0.4,0,1.2-4.4,1.2-4.4s2.4,1,2.8,0.7c0.3-0.2-4-14.5-4-14.5l0,0c0,0-4.2,14.2-4,14.5
				c0.2,0.3,2.8-0.7,2.8-0.7S112.4,29.4,112.8,29.4z"/>
		</g>
	</g>
	<g>
		<g>
			<circle fill="#FFFFFF" cx="112.8" cy="8.1" r="1.6"/>
		</g>
	</g>
	<g>
		<g>
			<circle fill="#FFFFFF" cx="109.5" cy="11.3" r="1.6"/>
		</g>
	</g>
	<g>
		<g>
			<circle fill="#FFFFFF" cx="116" cy="11.3" r="1.6"/>
		</g>
	</g>
	<g>
		<g>
			<path fill="#FFFFFF" d="M179.1,29.1c0.4,0,1.2-4.4,1.2-4.4s2.4,1,2.8,0.7c0.3-0.2-4-14.5-4-14.5l0,0c0,0-4.2,14.2-4,14.5
				c0.2,0.3,2.8-0.7,2.8-0.7S178.7,29.1,179.1,29.1z"/>
		</g>
	</g>
	<g>
		<g>
			<circle fill="#FFFFFF" cx="179.1" cy="7.8" r="1.6"/>
		</g>
	</g>
	<g>
		<g>
			<circle fill="#FFFFFF" cx="175.9" cy="11" r="1.6"/>
		</g>
	</g>
	<g>
		<g>
			<circle fill="#FFFFFF" cx="182.4" cy="11" r="1.6"/>
		</g>
	</g>
	<g>
		<g>
			<path fill="#FFFFFF" d="M113.4,118.5c0.4,0,1.2-4.4,1.2-4.4s2.4,1,2.8,0.7c0.3-0.2-4-14.5-4-14.5l0,0c0,0-4.2,14.2-4,14.5
				c0.2,0.3,2.8-0.7,2.8-0.7S113,118.5,113.4,118.5z"/>
		</g>
	</g>
	<g>
		<g>
			<circle fill="#FFFFFF" cx="113.4" cy="97.2" r="1.6"/>
		</g>
	</g>
	<g>
		<g>
			<circle fill="#FFFFFF" cx="110.2" cy="100.5" r="1.6"/>
		</g>
	</g>
	<g>
		<g>
			<circle fill="#FFFFFF" cx="116.7" cy="100.5" r="1.6"/>
		</g>
	</g>
	<g>
		<g>
			<path fill="#FFFFFF" d="M146.3,106.8c0.4,0,1.2-4.4,1.2-4.4s2.4,1,2.8,0.7c0.3-0.2-4-14.5-4-14.5l0,0c0,0-4.2,14.2-4,14.5
				c0.2,0.3,2.8-0.7,2.8-0.7S145.9,106.8,146.3,106.8z"/>
		</g>
	</g>
	<g>
		<g>
			<circle fill="#FFFFFF" cx="146.3" cy="85.5" r="1.6"/>
		</g>
	</g>
	<g>
		<g>
			<circle fill="#FFFFFF" cx="143" cy="88.7" r="1.6"/>
		</g>
	</g>
	<g>
		<g>
			<circle fill="#FFFFFF" cx="149.5" cy="88.7" r="1.6"/>
		</g>
	</g>
	<g>
		<g>
			<path fill="#FFFFFF" d="M179.4,118.9c0.4,0,1.2-4.4,1.2-4.4s2.4,1,2.8,0.7c0.3-0.2-4-14.5-4-14.5l0,0c0,0-4.2,14.2-4,14.5
				c0.2,0.3,2.8-0.7,2.8-0.7S179,118.9,179.4,118.9z"/>
		</g>
	</g>
	<g>
		<g>
			<circle fill="#FFFFFF" cx="179.4" cy="97.6" r="1.6"/>
		</g>
	</g>
	<g>
		<g>
			<circle fill="#FFFFFF" cx="176.2" cy="100.8" r="1.6"/>
		</g>
	</g>
	<g>
		<g>
			<circle fill="#FFFFFF" cx="182.6" cy="100.8" r="1.6"/>
		</g>
	</g>
	<g>
		<g>
			<path fill="#FFFFFF" d="M267,53.9c-0.4,0-1.2-4.4-1.2-4.4s-2.4,1-2.8,0.7c-0.3-0.2,4-14.5,4-14.5l0,0c0,0,4.2,14.2,4,14.5
				c-0.2,0.3-2.8-0.7-2.8-0.7S267.4,53.9,267,53.9z"/>
		</g>
	</g>
	<g>
		<g>
			<circle fill="#FFFFFF" cx="267" cy="32.6" r="1.6"/>
		</g>
	</g>
	<g>
		<g>
			<circle fill="#FFFFFF" cx="270.2" cy="35.8" r="1.6"/>
		</g>
	</g>
	<g>
		<g>
			<circle fill="#FFFFFF" cx="263.7" cy="35.8" r="1.6"/>
		</g>
	</g>
	<g>
		<g>
			<path fill="#FFFFFF" d="M222.5,73.9c-0.4,0-1.2-4.4-1.2-4.4s-2.4,1-2.8,0.7c-0.3-0.2,4-14.5,4-14.5l0,0c0,0,4.2,14.2,4,14.5
				c-0.2,0.3-2.8-0.7-2.8-0.7S222.9,73.9,222.5,73.9z"/>
		</g>
	</g>
	<g>
		<g>
			<circle fill="#FFFFFF" cx="222.5" cy="52.6" r="1.6"/>
		</g>
	</g>
	<g>
		<g>
			<circle fill="#FFFFFF" cx="225.7" cy="55.8" r="1.6"/>
		</g>
	</g>
	<g>
		<g>
			<circle fill="#FFFFFF" cx="219.3" cy="55.8" r="1.6"/>
		</g>
	</g>
	<g>
		<g>
			<path fill="#FFFFFF" d="M267,91.1c-0.4,0-1.2-4.4-1.2-4.4s-2.4,1-2.8,0.7c-0.3-0.2,4-14.5,4-14.5l0,0c0,0,4.2,14.2,4,14.5
				c-0.2,0.3-2.8-0.7-2.8-0.7S267.4,91.1,267,91.1z"/>
		</g>
	</g>
	<g>
		<g>
			<circle fill="#FFFFFF" cx="267" cy="69.8" r="1.6"/>
		</g>
	</g>
	<g>
		<g>
			<circle fill="#FFFFFF" cx="270.2" cy="73" r="1.6"/>
		</g>
	</g>
	<g>
		<g>
			<circle fill="#FFFFFF" cx="263.8" cy="73" r="1.6"/>
		</g>
	</g>
	<g>
		<g>
			<path fill="#FFFFFF" d="M152,219.6c6.9-1,19.9-7,24.9-10.3c5-3.3,18.9-10.1,18.8-25.4c-0.1-15.3-12.4-19.8-20.7-21
				c-4.8-0.7-12.4-1.4-21,0c-6.5,1.1-12.4,5.1-12.4,5.1c4.6,0.8,8.3-1.6,11.9-2.2c3.6-0.6,26-2.2,33.1,5.9
				c7.1,8.1,6.1,15.4,2.6,21.5c-9.9,12-25.1,16.7-37.3,23L152,219.6z"/>
		</g>
	</g>
	<g>
		<g>
			<path fill="#FFFFFF" d="M120.6,173.1c0.3-0.8,12.7-5,12.3-2.8c-0.4,2.1-3.5,3.7-5.4,4.1C125.6,174.6,120.4,173.9,120.6,173.1z"/>
		</g>
	</g>
	<g>
		<g>
			<polygon fill="#FFFFFF" points="147.4,344.1 146.4,344.2 145.3,336.7 146.4,336.6 			"/>
		</g>
	</g>
	<path fill="#FFFFFF" d="M194.5,163.2c-6.7-6.6-24-8.6-37.5-6.4c-1.3-3-1.2-6.7-1.1-10.3c0.5-2.7-0.3-5.1-0.7-5.6
		c-2.7-3-7.3-5.7-12.2-4.5c-4.7,1.1-6.3,2.4-6.5,5.6l5.5-0.2l1.4,0.1c0,0,0.8,1.3,0.1,2.3c-0.6,1-1.9,0-1.9,0l-0.1-2.3l-5,0.2
		c-0.2,3.4,1.1,8,1.8,12.2c0.5,2.5,1,5.3,0.6,7.3l-4.5,1.7c-5.6-3.2-10.7,1.2-15,4.3c-3.7,2.4-9.2,3.9-12.9,3.2l-1.1,1.1
		c-0.3,3.3,2.5,7.1,2.2,9.5c0,0-4.6,3.5-7.2,0c-2.6-3.5-8.6-0.3-11.7-0.3c-3.1,0-5-1.8-5.8-0.6c-0.8,1.2,3.2,3.2,3.2,3.2
		c-2.5,1.9-2.9,3.5-2.4,4.4c0.6,0.9,3-1.3,5.5-3c2.5-1.7,5.7-3.5,9.5-0.2c3.8,3.2,6.6,0.7,9.8-0.1c3.9,4.4,10.1,1.4,15.2,0.3
		c3.7-0.8,5.6,1.4,8.8,0.3c3.2-1,3.1-8,7.5-9.1c0,0,0.1,5.9-1,10.7c-0.7,3.3-2,6,0,24.5c-10.6,2.7-21.7,6.6-29.5,16.1
		c-4.4,5.4-6.3,11.8-5.4,19.3c4.4,16.7,22.7,22.2,37.3,26.6c-2.1,9.4,0.4,22.2-2,31.9c-4.1,1.4-9.4,3.1-11.6,8.3
		c-2.7,6.2-1,12.5,0.9,15.7c1.9,3.2,7.4,6.9,12.9,7.5c0.4,3.6-0.9,8.8,2.1,10.7c3,1.9,7.1-0.4,7.5-2.1c0.4-1.7-1-4.2-0.8-6
		c0.8-7,8.9-15.3,10.4-17.5c1.5-2.3,5.3-1.9,3.5-4.3c-1.8-2.4-8.8,3.1-12.1,7.5c-0.6-2.9-0.7-7.2-0.7-11.6c8.2-1.6,21.6-6,25.7-9.7
		c6-5.4,8.4-12.7,8.1-20.5c-0.1-18.6-21.8-23.7-33.2-31.1c0-1.6,0.2-14.1,0.3-24.3c12.9-3.8,33.3-13.1,40.4-21
		c7.4-8.2,10.8-18.1,10.7-24.3C204.1,176.4,201.2,169.9,194.5,163.2z M150.3,140l2.1,2.1l1.1,1.1l-0.7,0.7c0,0-3-2.7-3.2-3.2
		C149.4,140.2,150.3,140,150.3,140z M145.5,146.3l5,0.5c0,0,1.5,0.2,1.5,1c0,0.9-3.1,2.1-6,0.8C143.1,147.3,145.5,146.3,145.5,146.3
		z M141,149.3c0.5-1,10.4,0.7,10.7,2.1c0.3,1.5-2.3,3.1-2.1,4.3c0.2,1.2,2.7,2.2,2.7,2.2c-4.1,0.5-10.2,2.6-10.2,2.6l-0.7-6.5
		C141.5,154.1,140.5,150.3,141,149.3z M119.6,182.3c0,0-5.3,3.9-7.8,0.4c0,0,4.2-2.8,7.4-2.6C122.4,180.3,119.6,182.3,119.6,182.3z
		 M141.1,323.3c0,0,0.3,3.1,3,2.8c2.8-0.3,0.5-10.5,0.1-16.2c0-1.2-0.2-2.6,1.1-3.2l-1.1-1.1c1.6-10.1,1.6-22.1,0-32.1
		c1.2,0,2.6-0.2,3.2,1.1c-1.6,2.6-1.6,7.1,0,9.6c2.8,1.8-2.4,6.3,3.2,5.4l-0.8-0.7l1.1-1.1l0.8,0.7c-1.3,0.6-1.1,2-1.1,3.2
		c-1,0.3-1.5-0.5-2.1-1.1c-3.5,10.5-2.2,24.8-0.9,35.9c0,0-2.3,1.6-4.4,1.6c-2.1-0.1-3.2-1.4-4-3c-0.8-1.6,1.8-6.7,1.8-6.7
		C141.1,320.2,140.9,321.7,141.1,323.3z M131.1,316.6c-0.9-3.6,4.6-6.8,8.3-9.7C138.1,311.1,135.6,314.6,131.1,316.6z M156.6,324.2
		c-5.6,8.6-13.1,10.9-18.8,8.3c-2.4-1.9-5.9-3.2-5.8-8c0.1-6.9,9.1-12.3,9.1-12.3s-5.3,6.5-5.7,10.5c-0.5,4.6,1.8,7,5.6,8.3
		C144.7,332.1,153,327.3,156.6,324.2z M124,263c-10.6-5.2-15.6-13.2-15.7-20.7c-0.1-7.5,3.1-12.3,9.5-17.4c6.2-5,15.2-8.6,21.8-10.7
		l0,5.7c-8.5,2.4-21.2,8.5-23.7,14.9c-2.6,6.4-1.2,9.8,0.8,13.7c3.3,6.5,10,10.3,17.1,13c3,1.1,17.3,5.6,21.8,7.3
		c4.5,1.7,18.1,7.5,18.8,15.8c0.3,4-2.6,9.3-7.1,13.2c-4.5,4-10.6,6.7-15,8.5c0.1-1.2,0.1-2.3,0.2-3.4c0,0,0.1,0,0.1,0
		c12.6-4.8,18.7-13.9,17.3-18.8c-1.4-4.9-8.4-8.7-15.4-11.5C147.6,270,133.9,267.8,124,263z M153.9,283.2l-1.1-7.5
		c5.1,3.5,13.8,5.3,13.6,11.9c-0.1,3.3-9.8,9.7-13.6,12.1c0.1-1.2,0.2-2,0.2-2C152.5,292.5,158.9,287.6,153.9,283.2z M157.1,258.5
		c11.3,4,19.8,10.8,23.1,17.1c3.2,6.3,2.9,13.3,0.5,18.3c-1.6,3.3-6.8,8.1-12.1,10.9c-6,3.3-12.6,5-16.4,5.8c0-0.7,0-1.3,0.1-2
		c3.4-1.1,9.9-3.5,15.1-6.3c4.2-2.2,12.1-9.7,10.7-19.7c-0.8-5.7-7.7-10.9-17.2-15.3c-6.4-2.9-14.9-5.5-20.3-7.6
		c-12.8-4.9-21.9-11.1-22.1-17.4c-0.5-12.9,12.5-14.9,21.2-18.7l-0.3,5.4c0,0-5.4,0.9-8.4,2.8c-3,2-4.9,4.2-4.2,9.8
		c0.2,1.4,3.9,6.1,9,8.4C140.5,252.3,151,256.4,157.1,258.5z M138.9,233.9l-0.8,13.3c-1.6-0.7-3.1-1.4-4.2-2.3
		c-2.7-2.1-3.2-6-2.4-7.4C133.7,233.8,138.9,233.9,138.9,233.9z M146.6,196.2c-0.8,1.8,0.8,53.8,0.8,53.8s-2.1-0.4-4.7-1.2
		c-0.1-2.4-0.4-6.3-0.7-8.5c-0.5-3.2,2.6-30.6-0.9-44.3c5.4-4.6-1.3-15,4.1-18.2c1.4-0.8,3.1-1.5,6.3-0.8c-6.1,2.5-1.3,8.2-4.2,12.9
		c0.6,0.5,1.2,1.4,2.1,1.1l4.1-2.6l-0.3,3.3C151.8,191.4,147.4,194.4,146.6,196.2z M190.8,203.6c-7.2,7.7-23.2,15.3-37.7,20.4
		c0.1-5.5,0.1-9.7,0.1-9.7c0.1-1.4,0.3-3,0.6-4.6c3.4-0.7,10.3-3.7,14-5.8c6.3-3.6,13.8-8.1,17.3-14c3.6-6,2.1-11.6-1.7-16
		c-3.9-4.4-16.3-5-20-5c-10.1-0.1-15.9,1.7-23.1,4.2c-7.2,2.5-6.5,8.6-8.3,9.4c-1.8,0.8-6.8-1.6-9.3-0.2c0,0,1.5-1.8,0.3-3.6
		c-1.2-1.8-4-0.9-6.5-0.1c-5.4,1.7-7.2,2.3-7.6-4.6c4-1.4,8.6-1.3,11.8-4.3c0,0,7.3-5.3,9.6-5.4c2.3-0.1,3,1.1,3.5,1.7
		c5.9-2.3,14.8-5.6,25.5-6.6c7.8-0.8,16.2-0.4,22.6,1.7c6.4,2.1,18,11.3,18.3,20.5C200.4,190.8,198.2,195.7,190.8,203.6z M156,172.9
		c9.2,0.5,22.3,0.3,25.1,5.6c2.8,5.3-0.1,9.8-2.5,12.6c-6.2,7.7-21,14-24.3,15.3C156.1,196.5,158.8,183.3,156,172.9z"/>
	<g>
		<path fill="#FFFFFF" d="M145.9,365.5l-0.8-0.5C55.5,312.9,5.4,228.9,0.4,122.2C0.2,116.2,0,110,0,103.9V0h292.3v104.2
			c0,6-0.2,12.1-0.4,18c-5.1,106.4-55.3,190.4-145.2,242.9L145.9,365.5z M3.2,3.2v100.7c0,6.1,0.1,12.2,0.4,18.2
			c4.9,105.3,54.1,188.2,142.3,239.8c88.4-52,137.8-134.9,142.8-239.8c0.3-5.9,0.4-11.9,0.4-17.8V3.2H3.2z"/>
	</g>
	<g>
		<rect x="1.6" y="120.5" fill="#FFFFFF" width="289.2" height="3.2"/>
	</g>
</g>
</svg>
