<?xml version="1.0" encoding="utf-8"?>
<!-- Generator: Adobe Illustrator 17.1.0, SVG Export Plug-In . SVG Version: 6.00 Build 0)  -->
<!DOCTYPE svg PUBLIC "-//W3C//DTD SVG 1.1//EN" "http://www.w3.org/Graphics/SVG/1.1/DTD/svg11.dtd">
<svg version="1.1" id="Layer_1" xmlns="http://www.w3.org/2000/svg" xmlns:xlink="http://www.w3.org/1999/xlink" x="0px" y="0px"
	 viewBox="0 0 384.2 29.1" enable-background="new 0 0 384.2 29.1" xml:space="preserve">
<g>
	<g>
		<path fill="#FFFFFF" d="M22.3,6.1l-6.8,11.5v7.7c0.8,1.9,2.8,2.1,4.7,2.2v1.1H6.8v-1.1c1.9-0.1,4.2-0.4,4.8-1.6v-8l-7-11.8
			C3.5,4.2,2.3,3.5,0,3.4V2.3h11.6v1.1c-2.2,0.1-2.9,0.5-3.5,1l6.5,11.2l6.3-11.1c-0.7-0.5-1.5-1-3.7-1.1V2.3h9.9v1.1
			C24.9,3.4,23.5,4.2,22.3,6.1"/>
		<path fill="#FFFFFF" d="M35.9,29c-2.2,0-3.3-1.5-3.4-2.6c-1.4,1.5-3.2,2.6-5,2.6c-2.2,0-4.1-1.4-4.1-3.7c0-1.2,0.3-2.4,0.9-3.3
			l8.2-3v-3.1c0-1.9-0.9-3.6-2.7-3.6c-1.1,0-2.2,1.4-2.3,3.5l-3.7,0.6v-0.4c1.2-3.7,5.3-5.2,7.3-5.2c3.8,0,5.1,2,5.1,5.1l-0.1,8.7
			c0,1.7,0.9,2.1,1.7,2.1c0.7,0,1.3-0.4,2.1-1.2v1.2C39,27.7,37.4,29,35.9,29 M27.6,22.2c-0.2,0.7-0.3,1.2-0.3,2.2
			c0,1.2,0.7,2.5,2.1,2.5c1.2,0,1.9-0.4,3.1-1.3l0-5.6C31.4,20.5,28.8,21.7,27.6,22.2"/>
		<path fill="#FFFFFF" d="M40.3,28.6v-1c1.9-0.1,2.4-0.5,2.7-1.2V5c0-1.4-0.2-2-3.1-2.2V1.9L47.5,0l0.2,0.7l-1.2,1.5v24.2
			c0.4,0.8,1.2,1.1,2.9,1.2v1H40.3z"/>
		<path fill="#FFFFFF" d="M59.4,29c-4.3,0-7.7-3.4-7.7-8.2c0-5.9,3.6-9.9,8.7-9.9c4.1,0,6.4,2.3,6.4,6v0.7l-11.2-0.1
			c-0.1,0.5-0.1,1.2-0.1,2.1c0,4.2,2.7,7,6.2,7c2.1,0,3.2-0.7,4.8-2.2l0.6,1C64.7,27.5,62.8,29,59.4,29 M59.8,12.1
			c-2.1,0-3.5,1.7-4,4.3l7.3-0.1C63,14.1,61.7,12.1,59.8,12.1"/>
	</g>
	<g>
		<path fill="#FFFFFF" d="M83.4,29.1c-2.1,0-3.8-0.6-4.9-1l-0.5-4.4h0.7c0.2,1.1,1,2.5,2,3.2c0.6,0.5,1.9,1.2,3,1.2
			c2.2,0,3.3-1.4,3.3-2.8c0-1.9-1.2-2.4-3.2-3.2c-3.8-1.6-5.2-2.6-5.2-5.2c0-2.9,2.9-4.8,6.7-4.8c1.8,0,3.2,0.5,4.1,0.9v4.3h-0.7
			c-0.1-1.1-0.5-2.5-1.5-3.1c-0.4-0.2-1.4-0.9-2.6-0.9c-2.1,0-3.2,1.3-3.2,2.6c0,1.7,0.9,2.4,3.5,3.4c3.5,1.4,5,2.5,5,5
			C89.9,27.2,87,29.1,83.4,29.1z"/>
		<path fill="#FFFFFF" d="M108.5,28.1c-2,0.6-2.6,0.9-5.7,0.9c-5.3,0-9.2-3.8-9.2-8.7c0-5,4.1-8.4,9.2-8.4c2.6,0,4,0.5,5.9,0.9v4.5
			h-0.7c-0.1-1.1-0.6-2.4-1.5-3c-0.5-0.3-1.7-1.3-3.9-1.3c-3.7,0-5.8,3.1-5.8,6.7c0,4.8,2.7,8.2,7,8.2c1.4,0,2.4-0.6,2.8-0.9
			c1-0.8,1.7-2,2-3.2l0.8,0.1L108.5,28.1z"/>
		<path fill="#FFFFFF" d="M123.9,28.7V28c1.2,0,2.2-0.4,2.5-0.9V21h-8.8v6.1c0.2,0.5,1.3,0.8,2.5,0.9v0.7h-7.8V28
			c1.1,0,2.3-0.4,2.5-0.9V13.9c-0.2-0.5-1.3-0.8-2.5-0.9v-0.7h7.8V13c-1.1,0.1-2.3,0.4-2.5,0.9v5.7h8.8v-5.7
			c-0.3-0.5-1.3-0.8-2.5-0.9v-0.7h7.9V13c-1.2,0.1-2.2,0.4-2.5,0.9v13.2c0.3,0.5,1.3,0.8,2.5,0.9v0.7H123.9z"/>
		<path fill="#FFFFFF" d="M142.8,29.1c-5.2,0-8.2-3.6-8.2-8.5c0-5,4.2-8.6,9.3-8.6c5.3,0,8.2,3.6,8.2,8.4
			C152.1,25.5,148,29.1,142.8,29.1z M142.5,13.1c-2.4,0-4.8,2.7-4.8,6.7c0,4.7,2.3,8.1,6.3,8.1c2.6,0,5-2.6,5-6.7
			C149,16.3,146.5,13.1,142.5,13.1z"/>
		<path fill="#FFFFFF" d="M163.9,29.1c-5.2,0-8.2-3.6-8.2-8.5c0-5,4.2-8.6,9.3-8.6c5.3,0,8.2,3.6,8.2,8.4
			C173.2,25.5,169.1,29.1,163.9,29.1z M163.6,13.1c-2.4,0-4.8,2.7-4.8,6.7c0,4.7,2.3,8.1,6.3,8.1c2.6,0,5-2.6,5-6.7
			C170.1,16.3,167.6,13.1,163.6,13.1z"/>
		<path fill="#FFFFFF" d="M175.5,28.7V28c1-0.1,2.6-0.3,3-1.2V13.9c-0.2-0.5-1.3-0.8-2.5-0.9v-0.7h8.1V13c-1.1,0.1-2.5,0.4-2.7,0.9
			v13.5l4.7-0.1c1.8,0,2.9-1.7,2.9-3.9h0.7v5.3H175.5z"/>
		<path fill="#FFFFFF" d="M208.5,29.1c-5.2,0-8.2-3.6-8.2-8.5c0-5,4.2-8.6,9.3-8.6c5.3,0,8.2,3.6,8.2,8.4
			C217.9,25.5,213.7,29.1,208.5,29.1z M208.2,13.1c-2.4,0-4.8,2.7-4.8,6.7c0,4.7,2.3,8.1,6.3,8.1c2.6,0,5-2.6,5-6.7
			C214.7,16.3,212.2,13.1,208.2,13.1z"/>
		<path fill="#FFFFFF" d="M232.6,16.5c-0.1-2.3-1-2.9-3-2.9H226V20l3.5-0.1c1.7-0.1,2.4-0.1,2.7-2h0.7v5.5h-0.7
			c-0.2-2.1-0.9-2.1-2.6-2.1l-3.5,0v5.5c0.3,0.8,1.8,1.2,3,1.3v0.7h-8.6V28c1.1-0.1,2.4-0.3,2.7-1.1V14c-0.2-0.6-1.4-0.9-2.6-0.9
			v-0.7h10.7c0.6,0,1.1,0,1.5-0.2h0.6v4.3H232.6z"/>
		<path fill="#FFFFFF" d="M258.8,28.7V28c1.2-0.1,2.5-0.4,2.7-0.9l-0.5-9.5l0-2.7l-0.8,2.1L255,28.7h-1l-4.5-12.3l-0.7-2l-0.1,1.8
			L248,26.8c0.2,0.5,1.4,1,2.6,1.1v0.7h-6.7V28c1.2-0.1,2.3-0.6,2.6-1.1l0.7-9.2c0.1-0.9,0.2-2.8,0.2-2.9c0-0.2,0-0.5,0-0.8
			c-0.3-0.4-1.1-0.8-2.3-0.9v-0.7h5.8l0.8,2.5l3.7,10.2l4.2-9.9l1.1-2.7h5.2V13c-1.2,0.1-2.1,0.4-2.3,0.8c0,0.2,0,0.4,0,0.6
			c0,0.3,0.1,2.3,0.2,3.1l0.5,9.5c0.3,0.5,1.4,0.8,2.5,0.9v0.7H258.8z"/>
		<path fill="#FFFFFF" d="M275.3,28.7l-5.8,0.1v-0.7c1.2-0.1,2.9-0.4,3.3-1.2V13.9c-0.2-0.5-1.3-0.8-2.5-0.9v-0.7h10.7
			c0.7,0,1.2-0.1,1.5-0.2h0.6v4.3h-0.7c-0.1-2.3-1-2.9-3-2.9h-3.7v6.1h3.5c1.8,0,2.5,0,2.7-1.9h0.6v5.3h-0.7
			c-0.2-2.1-0.8-2.1-2.7-2.1h-3.5v5.6c0.1,0.3,0.2,0.7,0.7,0.9l4.1-0.1c1.7,0,2.9-0.8,2.9-3h0.6v4.3H275.3z"/>
		<path fill="#FFFFFF" d="M296.1,28.7l-8.6,0V28c1.1,0,2.4-0.4,2.6-0.9V13.9c-0.2-0.5-1.5-0.8-2.7-0.9v-0.7c3-0.1,5.9-0.3,8.2-0.3
			c5.9,0,9.4,3,9.4,8C305,25,301.1,28.8,296.1,28.7z M294.5,13H293v13.9c0.3,0.4,1.7,0.8,2.7,0.8c4.1,0,6.1-2.8,6.1-6.8
			C301.8,15.6,299,13,294.5,13z"/>
		<path fill="#FFFFFF" d="M307.6,28.7V28c1.2-0.1,2.4-0.4,2.6-0.9V13.9c-0.2-0.5-1.4-0.8-2.6-0.9v-0.7h8.2V13
			c-1.2,0.1-2.4,0.4-2.6,0.9V27c0.2,0.5,1.4,0.8,2.6,0.9v0.7H307.6z"/>
		<path fill="#FFFFFF" d="M333.2,28.1c-2,0.6-2.6,0.9-5.7,0.9c-5.3,0-9.2-3.8-9.2-8.7c0-5,4.1-8.4,9.2-8.4c2.6,0,4,0.5,5.9,0.9v4.5
			h-0.7c-0.1-1.1-0.6-2.4-1.5-3c-0.5-0.3-1.7-1.3-3.9-1.3c-3.7,0-5.8,3.1-5.8,6.7c0,4.8,2.7,8.2,7,8.2c1.4,0,2.4-0.6,2.8-0.9
			c1-0.8,1.7-2,2-3.2l0.8,0.1L333.2,28.1z"/>
		<path fill="#FFFFFF" d="M337,28.7V28c1.2-0.1,2.4-0.4,2.6-0.9V13.9c-0.2-0.5-1.4-0.8-2.6-0.9v-0.7h8.2V13
			c-1.2,0.1-2.4,0.4-2.6,0.9V27c0.2,0.5,1.4,0.8,2.6,0.9v0.7H337z"/>
		<path fill="#FFFFFF" d="M364.8,14.2V24c0,1.4,0.1,3.7,0.2,4.9h-1.6l-10-12.3l-1.1-1.7l0.1,1.5v5.9c0,1.4,0.1,3.4,0.2,4.5
			c0.2,0.5,1.7,1,2.9,1.1v0.7h-7.1V28c1.2-0.1,2.3-0.6,2.5-1.1v-9.2c0-1.3,0-2.6-0.1-3.5c-0.3-0.5-1.3-1-2.5-1.1v-0.7h5.2l1.5,1.9
			l8.4,10.3v-5.9c0-1.4-0.1-3.6-0.1-4.4c-0.2-0.5-1.7-1.1-2.9-1.1v-0.7h7.1V13C366.2,13.1,365.1,13.6,364.8,14.2z"/>
		<path fill="#FFFFFF" d="M375.5,28.7l-5.8,0.1v-0.7c1.2-0.1,2.9-0.4,3.3-1.2V13.9c-0.2-0.5-1.3-0.8-2.5-0.9v-0.7h10.7
			c0.7,0,1.2-0.1,1.5-0.2h0.6v4.3h-0.7c-0.1-2.3-1-2.9-3-2.9h-3.7v6.1h3.5c1.8,0,2.5,0,2.7-1.9h0.6v5.3H382
			c-0.2-2.1-0.8-2.1-2.7-2.1h-3.5v5.6c0.1,0.3,0.2,0.7,0.7,0.9l4.1-0.1c1.7,0,2.9-0.8,2.9-3h0.6v4.3H375.5z"/>
	</g>
</g>
</svg>
